<?xml version="1.0" encoding="utf-8"?>
<!-- Generator: Adobe Illustrator 16.0.0, SVG Export Plug-In . SVG Version: 6.00 Build 0)  -->
<!DOCTYPE svg PUBLIC "-//W3C//DTD SVG 1.1//EN" "http://www.w3.org/Graphics/SVG/1.1/DTD/svg11.dtd">
<svg version="1.1" id="Layer_1" xmlns="http://www.w3.org/2000/svg" xmlns:xlink="http://www.w3.org/1999/xlink" x="0px" y="0px"
	 width="960px" height="560px" viewBox="0 0 960 560" enable-background="new 0 0 960 560" xml:space="preserve">
<path fill="#C60000" d="M463.933,122h-47L170.44,436h47.57L463.933,122z"/>
<path d="M415.472,284.609c0,57.887-46.926,104.812-104.812,104.812s-104.812-46.926-104.812-104.812
	c0-57.885,46.926-104.812,104.812-104.812S415.472,226.725,415.472,284.609z M310.659,219.613
	c-35.898,0-64.998,29.099-64.998,64.996c0,35.898,29.1,64.998,64.998,64.998s64.998-29.1,64.998-64.998
	C375.657,248.712,346.558,219.613,310.659,219.613z"/>
<rect x="377" y="249" width="40" height="140"/>
<polygon points="643,181 643,225 747,225 747,337 791,337 791,225 791,221 791,181 "/>
<path d="M493.427,335.52c0-60.64,49.003-109.829,109.573-110.133v-43.562c-84.629,0.304-153.14,68.997-153.14,153.696
	c0,0.495,0.014,0.986,0.019,1.48h43.566C493.439,336.507,493.427,336.015,493.427,335.52z"/>
</svg>
