<?xml version="1.0" encoding="utf-8"?>
<!-- Generator: Adobe Illustrator 17.0.0, SVG Export Plug-In . SVG Version: 6.00 Build 0)  -->
<!DOCTYPE svg PUBLIC "-//W3C//DTD SVG 1.1//EN" "http://www.w3.org/Graphics/SVG/1.1/DTD/svg11.dtd">
<svg version="1.1" id="Layer_1" xmlns="http://www.w3.org/2000/svg" xmlns:xlink="http://www.w3.org/1999/xlink" x="0px" y="0px"
	 width="960px" height="560px" viewBox="0 0 960 560" enable-background="new 0 0 960 560" xml:space="preserve">
<path fill="#C60000" d="M440.933,128h-47L147.44,442h47.57L440.933,128z"/>
<g>
	<polygon points="624,181 624,225 728,225 728,337 772,337 772,225 772,221 772,181 	"/>
	<rect x="358" y="235" width="44" height="155"/>
	<path d="M480.465,335.52C480.465,274.88,530,225.69,590,225.386v-43.562c-85,0.304-153.101,68.997-153.101,153.696
		c0,0.495,0.053,0.986,0.057,1.48h43.566C480.516,336.507,480.465,336.015,480.465,335.52z"/>
	<path d="M397.548,284.609c0,57.887-46.926,104.812-104.812,104.812c-57.887,0-104.812-46.926-104.812-104.812
		c0-57.885,46.926-104.812,104.812-104.812C350.623,179.798,397.548,226.725,397.548,284.609z M292.736,219.613
		c-35.898,0-64.998,29.099-64.998,64.996c0,35.898,29.1,64.998,64.998,64.998c35.898,0,64.998-29.1,64.998-64.998
		C357.734,248.712,328.634,219.613,292.736,219.613z"/>
</g>
<g>
	<path d="M574.882,287.006c8.629,5.685,20.307,10.296,31.713,12.617l-3.046,5.582c-11.543-2.595-22.538-10.15-29.96-16.314
		L574.882,287.006z"/>
	<path d="M544.45,305.058l-0.712-2.233c12.93-3.596,24.813-11.954,29.891-19.06l4.641,3.88
		C572.467,294.065,559.575,301.809,544.45,305.058z"/>
	<polygon points="553,284 548,284 548,273 572,273 572,269 556,269 556,265 594,265 594,269 578,269 578,273 601,273 601,284 
		596,284 596,276 578,276 578,283 572,283 572,276 553,276 	"/>
	<polygon points="551.902,287.986 568.635,284.093 569.337,285.714 554.108,293.328 	"/>
	<polygon points="557.64,276.764 569.134,281.405 568.654,283.329 556.303,281.622 	"/>
	<rect x="566" y="298" width="18" height="3"/>
	<polygon points="588.562,304 592.05,308.875 575.594,319.198 574.022,317.51 583.833,308 558,308 558,304 	"/>
	<polygon points="592.077,281.086 580.605,283.064 580.113,281.258 590.871,277.059 	"/>
	<path d="M594.163,293.522c-2.801-2.12-9.678-5.952-14.415-7.716l0.762-2.027c5.667,0.889,12.434,3.08,16.393,4.717L594.163,293.522
		z"/>
	<path d="M632,306h-12v5h-6v-38h18V306z M620,277v11h6v-11H620z M626,303v-11h-6v11H626z"/>
	<path d="M657,278v6h13v4h-8v5h13v4h-13v24.345c0,2.604-1.039,3.365-2.447,3.365c-1.409,0-11.402-0.052-11.402-0.052l0.084-3.125
		c0,0,4.564,0.019,5.725-0.049c1.23-0.068,2.041-0.599,2.041-1.69V297h-22v-4h22v-5h-18v-4h13v-6h-15v-4h15v-11h6v11h16v4H657z"/>
	<path d="M641.214,299.786c5.195,3.342,10.544,8.362,12.182,11.776l-5.278,3.046c-1.709-3.551-4.366-8.325-8.866-12.807
		L641.214,299.786z"/>
	<polygon points="598,379 598,382 570.046,382 563.143,389.134 589.539,385.647 590.147,388.065 556.543,394.553 555.749,390.066 
		565.782,382 551,382 551,379 	"/>
	<polygon points="563,339 548,339 548,336 563,336 563,331 569,331 569,336 573,336 573,339 569,339 569,342 563,342 	"/>
	<path d="M563,351h10v3h-4v1.356c0,1.727,0.397,2.644,1.716,2.644H575v3h-6.982c-2.457,0-4.018-1.042-4.018-4.114v-2.824
		l-5.271,0.076c-3.808,6.169-9.772,9.747-15.863,11.676l-0.901-1.954c4.139-2.007,8.46-5.659,10.184-9.821L545,354.07V351h13v-3h-8
		v-3h8v-4h5v4h6v3h-6V351z"/>
	<rect x="561" y="373" width="27" height="3"/>
	<path d="M588.462,351.014c0,7.74-2.232,16.026-13.847,21.688l-1.146-1.425c8.345-5.246,9.269-12.678,9.269-20.292l0.011-8.985
		h5.928L588.462,351.014z"/>
	<path d="M576,348h21v18.38c0,1.366-0.079,2.197,0.262,2.403c0.273,0.204,0.533,0.217,1.08,0.217h1.586
		c0.685,0,1.368-0.013,1.642-0.217c0.34-0.206,0.792-0.533,0.819-1.297c0.031-0.877,0.039-2.486,0.039-2.486h2.34
		c0,0,0.102,4.035-0.001,5c-0.104,0.973-0.492,1.648-1.396,2.274c-0.786,0.546-1.751,0.726-3.173,0.726h-1.994
		c-2.79,0-4.503-0.116-5.519-1.182c-0.612-0.645-0.685-2.088-0.685-5.299v-14.868l-16-0.025V348z"/>
	<polygon points="580,339 576,339 576,336 580,336 580,331 586,331 586,336 601,336 601,339 586,339 586,344 580,344 	"/>
	<rect x="558" y="358" width="4" height="12"/>
	<rect x="552" y="362" width="15" height="3"/>
	<polygon points="574.921,367.438 546.514,377.562 544.89,372.739 574.31,365.153 	"/>
	<polygon points="624,359.075 624,391 618,391 618,363.556 	"/>
	<path d="M609.935,373.482l-1.859-2.205c6.514-5.526,12.439-13.551,16.363-20.841l4.542,3.876
		C624.993,361.19,613.902,371.093,609.935,373.482z"/>
	<path d="M627.516,339.911c-5.108,8.2-9.877,13.306-15.254,16.659l-1.865-1.902c5.118-4.735,9.096-11.51,11.787-17.585
		L627.516,339.911z"/>
	<path d="M636.111,356c-0.205,14-2.538,23.143-8.528,29.801l-1.914-1.799c4.732-6.684,5.112-14.002,4.985-28.002H636.111z"/>
	<polygon points="643,353 643,395 638,395 638,353 629,353 629,349 638,349 638,333 643,333 643,349 652,349 652,353 	"/>
	<path d="M649.741,347.095c-1.423-3.756-3.147-6.599-5.627-10.353l2.175-1.525c2.867,2.8,6.115,7.354,7.41,9.948L649.741,347.095z"
		/>
	<path d="M656,376v3h-7.503c-1.75,0-3.497-1.945-3.497-4.391V358h5v15.779c0,1.706,0.867,2.221,1.619,2.221H656z"/>
	<path d="M676,357h-8v31.78c0,1.844-1.451,3.39-4.27,3.39c-1.6,0-9.386-0.042-9.386-0.042l-0.088-2.965c0,0,4.239-0.039,5.197-0.039
		c1.371,0,2.546-0.837,2.546-2.133V357h-10v-4h24V357z"/>
	<rect x="656" y="342" width="16" height="4"/>
	<path d="M587.104,368.148c-2.435-3.858-5.407-7.918-10.763-10.659l1.117-2.335c4.896,2.358,10.747,6.244,13.445,8.967
		L587.104,368.148z"/>
	<path d="M591.315,395c-2.031-4.366-4.162-8.224-8.112-11.453l2.426-2.048c5.71,3.273,9.138,6.394,11.677,10.456L591.315,395z"/>
	<path d="M566.261,310.068c6.366,2.291,11.909,6.088,16.211,10.12l-4.374,4.526c-2.766-3.437-7.121-8.162-13.016-12.436
		L566.261,310.068z"/>
</g>
</svg>
