<?xml version="1.0" encoding="utf-8"?>
<!-- Generator: Adobe Illustrator 17.0.0, SVG Export Plug-In . SVG Version: 6.00 Build 0)  -->
<!DOCTYPE svg PUBLIC "-//W3C//DTD SVG 1.1//EN" "http://www.w3.org/Graphics/SVG/1.1/DTD/svg11.dtd">
<svg version="1.1" id="Layer_1" xmlns="http://www.w3.org/2000/svg" xmlns:xlink="http://www.w3.org/1999/xlink" x="0px" y="0px"
	 width="960px" height="560px" viewBox="0 0 960 560" enable-background="new 0 0 960 560" xml:space="preserve">
<g>
	<path fill="#C60000" d="M468.467,176h-23.5L321.721,333h23.785L468.467,176z"/>
	<polygon points="560,202 560,224 612,224 612,280 634,280 634,223.5 634,221.5 634,202 	"/>
	<rect x="427" y="230" width="22" height="77"/>
	<path d="M488.233,279.01c0-30.32,24.767-55.165,54.767-55.316v-21.781c-43,0.152-76.55,34.748-76.55,77.098
		c0,0.247,0.024-0.01,0.026,0.99h21.783C488.258,279,488.233,279.257,488.233,279.01z"/>
	<path d="M446.773,254.305c0,28.943-23.463,52.406-52.406,52.406c-28.943,0-52.406-23.463-52.406-52.406
		c0-28.942,23.463-52.406,52.406-52.406C423.31,201.899,446.773,225.362,446.773,254.305z M394.367,221.807
		c-17.949,0-32.498,14.549-32.498,32.498c0,17.949,14.549,32.499,32.498,32.499c17.949,0,32.5-14.55,32.5-32.499
		C426.867,236.356,412.316,221.807,394.367,221.807z"/>
	<g>
		<path d="M397.162,345.006c8.629,5.685,20.307,10.296,31.713,12.617l-3.047,5.582c-11.543-2.595-22.537-10.15-29.959-16.314
			L397.162,345.006z"/>
		<path d="M366.73,363.058l-0.713-2.233c12.93-3.596,24.814-11.954,29.891-19.06l4.641,3.88
			C394.746,352.065,381.855,359.809,366.73,363.058z"/>
		<polygon points="375,342 370,342 370,331 394,331 394,327 378,327 378,323 416,323 416,327 400,327 400,331 423,331 423,342 
			418,342 418,334 400,334 400,341 394,341 394,334 375,334 		"/>
		<polygon points="374.182,345.986 390.914,342.093 391.617,343.714 376.389,351.328 		"/>
		<polygon points="379.92,334.764 391.414,339.405 390.934,341.329 378.582,339.622 		"/>
		<rect x="388" y="356" width="18" height="3"/>
		<polygon points="410.842,362 414.33,366.875 397.873,377.198 396.303,375.51 406.113,366 380,366 380,362 		"/>
		<polygon points="414.357,339.086 402.885,341.064 402.393,339.258 413.15,335.059 		"/>
		<path d="M416.443,351.522c-2.801-2.12-9.678-5.952-14.416-7.716l0.762-2.027c5.668,0.889,12.434,3.08,16.395,4.717
			L416.443,351.522z"/>
		<path d="M454,364h-12v5h-6v-38h18V364z M442,335v11h6v-11H442z M448,361v-11h-6v11H448z"/>
		<path d="M479,336v6h13v4h-8v5h13v4h-13v24.345c0,2.604-0.899,3.365-2.308,3.365c-1.408,0-11.333-0.052-11.333-0.052l0.119-3.125
			c0,0,4.442,0.019,5.603-0.049c1.23-0.068,1.919-0.599,1.919-1.69V355h-22v-4h22v-5h-18v-4h13v-6h-15v-4h15v-11h6v11h16v4H479z"/>
		<path d="M463.494,357.786c5.195,3.342,10.543,8.362,12.182,11.776l-5.279,3.046c-1.709-3.551-4.365-8.325-8.865-12.807
			L463.494,357.786z"/>
		<polygon points="560,368 560,371 532.326,371 525.422,378.134 551.818,374.647 552.428,377.065 518.822,383.553 518.029,379.066 
			528.062,371 513,371 513,368 		"/>
		<polygon points="525,328 510,328 510,325 525,325 525,320 531,320 531,325 535,325 535,328 531,328 531,331 525,331 		"/>
		<path d="M525,340h10v3h-4v1.356c0,1.727,0.678,2.644,1.996,2.644H537v3h-6.703c-2.457,0-4.297-1.042-4.297-4.114v-2.824
			l-5.132,0.076c-3.807,6.169-9.702,9.747-15.794,11.676l-0.865-1.954c4.139-2.007,8.337-5.659,10.061-9.821L507,343.07V340h13v-3
			h-8v-3h8v-4h5v4h6v3h-6V340z"/>
		<rect x="523" y="362" width="27" height="3"/>
		<path d="M550.742,340.014c0,7.74-2.232,16.026-13.848,21.688l-1.146-1.425c8.346-5.246,9.27-12.678,9.27-20.292l0.012-8.985h5.928
			L550.742,340.014z"/>
		<path d="M538,337h21v18.38c0,1.366,0.062,2.197,0.401,2.403c0.273,0.204,0.673,0.217,1.22,0.217h1.586
			c0.686,0,1.369-0.013,1.643-0.217c0.34-0.206,0.791-0.533,0.818-1.297c0.031-0.877,0.039-2.486,0.039-2.486h2.34
			c0,0,0.102,4.035,0,5c-0.103,0.973-0.492,1.648-1.396,2.274c-0.785,0.546-1.75,0.726-3.172,0.726h-1.994
			c-2.791,0-4.644-0.116-5.659-1.182c-0.611-0.645-0.825-2.088-0.825-5.299v-14.868l-16-0.025V337z"/>
		<polygon points="542,328 538,328 538,325 542,325 542,320 548,320 548,325 563,325 563,328 548,328 548,333 542,333 		"/>
		<rect x="520" y="347" width="4" height="12"/>
		<rect x="514" y="351" width="15" height="3"/>
		<polygon points="537.201,356.438 508.793,366.562 507.17,361.739 536.59,354.153 		"/>
		<polygon points="586,348.075 586,380 580,380 580,352.556 		"/>
		<path d="M572.215,362.482l-1.859-2.205c6.514-5.526,12.439-13.551,16.363-20.841l4.543,3.876
			C587.273,350.19,576.182,360.093,572.215,362.482z"/>
		<path d="M589.795,328.911c-5.107,8.2-9.877,13.306-15.254,16.659l-1.865-1.902c5.119-4.735,9.096-11.51,11.787-17.585
			L589.795,328.911z"/>
		<path d="M598.391,345c-0.205,14-2.537,23.143-8.527,29.801l-1.914-1.799c4.73-6.684,5.111-14.002,4.984-28.002H598.391z"/>
		<polygon points="605,342 605,384 600,384 600,342 591,342 591,338 600,338 600,322 605,322 605,338 614,338 614,342 		"/>
		<path d="M612.021,336.095c-1.424-3.756-3.148-6.599-5.627-10.353l2.174-1.525c2.867,2.8,6.115,7.354,7.41,9.948L612.021,336.095z"
			/>
		<path d="M618,365v3h-7.223c-1.75,0-3.777-1.945-3.777-4.391V347h5v15.779c0,1.706,1.146,2.221,1.898,2.221H618z"/>
		<path d="M638,346h-8v31.78c0,1.844-1.312,3.39-4.13,3.39c-1.6,0-9.315-0.042-9.315-0.042l-0.053-2.965
			c0,0,4.116-0.039,5.075-0.039c1.371,0,2.423-0.837,2.423-2.133V346h-10v-4h24V346z"/>
		<rect x="618" y="331" width="16" height="4"/>
		<path d="M549.383,357.148c-2.435-3.858-5.406-7.918-10.762-10.659l1.117-2.335c4.895,2.358,10.746,6.244,13.445,8.967
			L549.383,357.148z"/>
		<path d="M553.596,384c-2.031-4.366-4.162-8.224-8.113-11.453l2.426-2.048c5.711,3.273,9.139,6.394,11.678,10.456L553.596,384z"/>
		<path d="M388.541,368.068c6.365,2.291,11.908,6.088,16.211,10.12l-4.375,4.526c-2.766-3.437-7.121-8.162-13.016-12.436
			L388.541,368.068z"/>
	</g>
</g>
</svg>
